<?xml version="1.0" encoding="UTF-8" standalone="no"?>
<!DOCTYPE svg PUBLIC "-//W3C//DTD SVG 1.1//EN"
 "http://www.w3.org/Graphics/SVG/1.1/DTD/svg11.dtd">
<!-- Generated by graphviz version 2.38.0 (20140413.2041)
 -->
<!-- Title: G Pages: 1 -->
<svg width="376pt" height="73pt"
 viewBox="0.00 0.00 376.09 73.00" xmlns="http://www.w3.org/2000/svg" xmlns:xlink="http://www.w3.org/1999/xlink">
<g id="graph0" class="graph" transform="scale(1 1) rotate(0) translate(4 69)">
<title>G</title>
<polygon fill="white" stroke="none" points="-4,4 -4,-69 372.087,-69 372.087,4 -4,4"/>
<!-- neural_network -->
<g id="node1" class="node"><title>neural_network</title>
<polygon fill="none" stroke="black" points="237.195,-65 97.1949,-65 93.1949,-61 93.1949,-0 233.195,-0 237.195,-4 237.195,-65"/>
<polyline fill="none" stroke="black" points="233.195,-61 93.1949,-61 "/>
<polyline fill="none" stroke="black" points="233.195,-61 233.195,-0 "/>
<polyline fill="none" stroke="black" points="233.195,-61 237.195,-65 "/>
<text text-anchor="middle" x="165.195" y="-28.8" font-family="Times New Roman,serif" font-size="14.00">neural_network</text>
</g>
<!-- prediction -->
<g id="node3" class="node"><title>prediction</title>
<ellipse fill="none" stroke="black" cx="320.641" cy="-32.5" rx="47.3916" ry="18"/>
<text text-anchor="middle" x="320.641" y="-28.8" font-family="Times New Roman,serif" font-size="14.00">prediction</text>
</g>
<!-- neural_network&#45;&gt;prediction -->
<g id="edge2" class="edge"><title>neural_network&#45;&gt;prediction</title>
<path fill="none" stroke="black" d="M237.527,-32.5C246.002,-32.5 254.564,-32.5 262.799,-32.5"/>
<polygon fill="black" stroke="black" points="263.023,-36.0001 273.023,-32.5 263.023,-29.0001 263.023,-36.0001"/>
</g>
<!-- input -->
<g id="node2" class="node"><title>input</title>
<ellipse fill="none" stroke="black" cx="28.5975" cy="-32.5" rx="28.6953" ry="18"/>
<text text-anchor="middle" x="28.5975" y="-28.8" font-family="Times New Roman,serif" font-size="14.00">input</text>
</g>
<!-- input&#45;&gt;neural_network -->
<g id="edge1" class="edge"><title>input&#45;&gt;neural_network</title>
<path fill="none" stroke="black" d="M57.4861,-32.5C65.0948,-32.5 73.7411,-32.5 82.7412,-32.5"/>
<polygon fill="black" stroke="black" points="83.0165,-36.0001 93.0164,-32.5 83.0164,-29.0001 83.0165,-36.0001"/>
</g>
</g>
</svg>
